<svg id="Слой_1" data-name="Слой 1" xmlns="http://www.w3.org/2000/svg" viewBox="0 0 300 300">
  <defs>
    <style>
      .cls-1 {
        fill: #e1c32e;
      }
      .cls-2 {
        fill: #fff;
      }
    </style>
  </defs>
  <title>Монтажная область 1</title><rect class="cls-1" width="300" height="300" rx="61.16" ry="61.16"/><path
    class="cls-2"
    d="M70.64,180.77H4a41.85,41.85,0,0,1,7-18.56q5.8-8.69,21.78-20.52,9.75-7.24,12.48-11A12.33,12.33,0,0,0,48,123.54a8.35,8.35,0,0,0-2.7-6.24,9.43,9.43,0,0,0-6.78-2.59,9.46,9.46,0,0,0-7,2.68q-2.7,2.67-3.63,9.42L5.68,125q1.3-9.37,4.79-14.64a22.41,22.41,0,0,1,9.84-8.07q6.35-2.81,17.58-2.8,11.72,0,18.23,2.67a22.19,22.19,0,0,1,10.25,8.2,21.73,21.73,0,0,1,3.73,12.4,25.39,25.39,0,0,1-4.28,13.95q-4.27,6.66-15.56,14.61-6.7,4.64-9,6.49T36,162.68H70.64Z"/><path
    class="cls-2"
    d="M80.13,140.49q0-22.77,8.2-31.88t25-9.1a37.26,37.26,0,0,1,13.24,2,24.28,24.28,0,0,1,8.45,5.18,27.45,27.45,0,0,1,5.15,6.7,35,35,0,0,1,3,8.2,76.56,76.56,0,0,1,2.23,18.64q0,21.75-7.36,31.83t-25.34,10.08q-10.08,0-16.3-3.21a26.37,26.37,0,0,1-10.19-9.43,35.61,35.61,0,0,1-4.49-12.07A82,82,0,0,1,80.13,140.49Zm22,.06q0,15.25,2.69,20.85t7.83,5.58a8.18,8.18,0,0,0,5.85-2.37c1.66-1.58,2.87-4.08,3.66-7.49s1.17-8.74,1.17-16q0-15.92-2.7-21.39t-8.09-5.48q-5.5,0-8,5.58T102.15,140.55Z"/><path class="cls-2" d="M192.73,165.84H152.29V147.58l40.44-48.07h19.35v49.11h10v17.22h-10v14.93H192.73Zm0-17.22V123.47l-21.37,25.15Z"/><path
    class="cls-2"
    d="M242.38,137.82a21.15,21.15,0,0,1-7.63-6.21,18.38,18.38,0,0,1-3.27-10.79q0-10,9.43-16.41,7.36-4.91,19.46-4.9,16,0,23.68,6.1T291.71,121a18.13,18.13,0,0,1-3.06,10.09,25,25,0,0,1-7.19,6.75,22.38,22.38,0,0,1,9.67,8.23,21,21,0,0,1,3.19,11.34,23.65,23.65,0,0,1-2.75,11.2,22.52,22.52,0,0,1-6.76,8,27.44,27.44,0,0,1-10,4.17,58.22,58.22,0,0,1-12.73,1.33q-12.71,0-19.4-3a21.89,21.89,0,0,1-10.19-8.83,24.86,24.86,0,0,1-3.49-13,19.25,19.25,0,0,1,13.35-19.46Zm8.78,18.7a12,12,0,0,0,3.21,8.64,10,10,0,0,0,7.36,3.35,9.56,9.56,0,0,0,7.14-3.41,13.37,13.37,0,0,0,0-17.3,9.84,9.84,0,0,0-7.38-3.38,9.61,9.61,0,0,0-7.22,3.27C252.18,149.87,251.16,152.81,251.16,156.52Zm1.2-34.39a8.93,8.93,0,0,0,2.58,6.67,9.45,9.45,0,0,0,6.9,2.54,8.42,8.42,0,0,0,6.27-2.51,8.9,8.9,0,0,0,2.45-6.49,9.15,9.15,0,0,0-2.56-6.73,9.07,9.07,0,0,0-15.64,6.52Z"/>
</svg>
